<svg width="1045" height="707" viewBox="0 0 1045 707" fill="none" xmlns="http://www.w3.org/2000/svg">
<g opacity="0.29" filter="url(#filter0_d_631_967)">
<path d="M288.964 423.967H388.12V466.695H232.536V449.082C232.536 437.122 234.548 426.413 238.57 416.954C242.593 407.386 247.649 398.851 253.737 391.349C259.826 383.739 266.458 377.052 273.634 371.29C280.918 365.419 287.822 360.146 294.346 355.47C301.195 350.578 307.175 345.903 312.285 341.445C317.504 336.987 321.853 332.584 325.332 328.235C328.92 323.777 331.584 319.32 333.323 314.862C335.063 310.296 335.933 305.457 335.933 300.347C335.933 290.345 333.106 282.788 327.452 277.678C321.799 272.568 313.155 270.013 301.521 270.013C281.408 270.013 262.163 278.005 243.789 293.987V248.649C264.12 235.494 287.061 228.916 312.611 228.916C324.462 228.916 335.063 230.492 344.413 233.645C353.872 236.69 361.863 241.093 368.387 246.855C374.91 252.618 379.857 259.63 383.228 267.893C386.707 276.048 388.446 285.18 388.446 295.292C388.446 306.055 386.761 315.623 383.391 323.995C380.129 332.367 375.726 339.977 370.181 346.827C364.744 353.677 358.438 359.983 351.263 365.745C344.087 371.399 336.639 376.889 328.92 382.217C323.701 385.913 318.646 389.61 313.753 393.306C308.969 396.894 304.729 400.482 301.032 404.07C297.336 407.549 294.4 410.974 292.226 414.344C290.051 417.715 288.964 420.922 288.964 423.967ZM505.868 470.772C450.201 470.772 422.368 431.686 422.368 353.513C422.368 312.959 429.87 282.082 444.874 260.881C459.987 239.571 481.84 228.916 510.435 228.916C564.797 228.916 591.978 268.654 591.978 348.132C591.978 387.707 584.53 418.041 569.635 439.134C554.848 460.226 533.593 470.772 505.868 470.772ZM508.151 268.219C485.863 268.219 474.719 296.216 474.719 352.209C474.719 404.94 485.646 431.305 507.499 431.305C528.809 431.305 539.464 404.124 539.464 349.762C539.464 295.4 529.026 268.219 508.151 268.219ZM673.194 423.967H772.351V466.695H616.767V449.082C616.767 437.122 618.778 426.413 622.801 416.954C626.824 407.386 631.879 398.851 637.968 391.349C644.056 383.739 650.688 377.052 657.864 371.29C665.149 365.419 672.053 360.146 678.576 355.47C685.426 350.578 691.406 345.903 696.516 341.445C701.734 336.987 706.083 332.584 709.562 328.235C713.15 323.777 715.814 319.32 717.554 314.862C719.293 310.296 720.163 305.457 720.163 300.347C720.163 290.345 717.336 282.788 711.683 277.678C706.029 272.568 697.385 270.013 685.752 270.013C665.638 270.013 646.394 278.005 628.02 293.987V248.649C648.351 235.494 671.292 228.916 696.842 228.916C708.693 228.916 719.293 230.492 728.644 233.645C738.103 236.69 746.094 241.093 752.617 246.855C759.141 252.618 764.088 259.63 767.458 267.893C770.937 276.048 772.677 285.18 772.677 295.292C772.677 306.055 770.992 315.623 767.621 323.995C764.359 332.367 759.956 339.977 754.411 346.827C748.975 353.677 742.669 359.983 735.493 365.745C728.317 371.399 720.87 376.889 713.15 382.217C707.932 385.913 702.876 389.61 697.983 393.306C693.2 396.894 688.959 400.482 685.263 404.07C681.566 407.549 678.631 410.974 676.456 414.344C674.282 417.715 673.194 420.922 673.194 423.967ZM950.604 232.83V380.26H978.654V418.748H950.604V466.695H903.635V418.748H801.706V378.466C810.73 368.354 820.08 357.319 829.757 345.359C839.433 333.291 848.784 320.896 857.808 308.176C866.832 295.455 875.203 282.68 882.923 269.85C890.751 256.912 897.383 244.572 902.819 232.83H950.604ZM847.859 380.26H903.635V298.553C899.829 305.621 895.698 312.796 891.24 320.081C886.783 327.257 882.107 334.378 877.215 341.445C872.322 348.403 867.375 355.199 862.374 361.831C857.373 368.354 852.535 374.497 847.859 380.26Z" fill="white"/>
</g>
<defs>
<filter id="filter0_d_631_967" x="0.536133" y="0.915771" width="1210.12" height="705.856" filterUnits="userSpaceOnUse" color-interpolation-filters="sRGB">
<feFlood flood-opacity="0" result="BackgroundImageFix"/>
<feColorMatrix in="SourceAlpha" type="matrix" values="0 0 0 0 0 0 0 0 0 0 0 0 0 0 0 0 0 0 127 0" result="hardAlpha"/>
<feOffset dy="4"/>
<feGaussianBlur stdDeviation="116"/>
<feComposite in2="hardAlpha" operator="out"/>
<feColorMatrix type="matrix" values="0 0 0 0 0 0 0 0 0 0 0 0 0 0 0 0 0 0 0.37 0"/>
<feBlend mode="normal" in2="BackgroundImageFix" result="effect1_dropShadow_631_967"/>
<feBlend mode="normal" in="SourceGraphic" in2="effect1_dropShadow_631_967" result="shape"/>
</filter>
</defs>
</svg>
