<svg width="185" height="47" viewBox="0 0 185 47" fill="none" xmlns="http://www.w3.org/2000/svg">
<path d="M32.1575 3.5C34.5517 7.59878 36.9459 11.6516 39.2515 15.7504C35.4746 22.4273 31.6977 29.1535 27.7828 35.7845C26.2622 38.3167 24.8335 40.8981 23.3162 43.4303C18.4817 43.4763 13.644 43.4763 8.85547 43.4303C8.99341 43.1084 9.13135 42.7866 9.31527 42.4647C16.9578 29.4754 24.6036 16.5353 32.1575 3.5ZM137.169 13.54C139.839 18.5157 142.513 23.4881 145.183 28.4638C144.263 28.4638 143.294 28.4179 142.375 28.4638C141.731 27.357 141.176 26.2075 140.578 25.1007C138.23 25.0088 135.836 25.1007 133.484 25.0547C132.932 26.2075 132.285 27.311 131.688 28.4178H128.926C131.596 23.4422 134.312 18.4698 137.169 13.54ZM134.634 22.9824C136.246 22.9824 137.859 22.9824 139.468 23.0283C138.64 21.5077 137.947 19.9871 137.074 18.5157C136.224 19.9845 135.41 21.4738 134.634 22.9824ZM146.7 13.4941C150.707 16.9951 154.76 20.4962 158.721 24.0399C158.813 20.8147 158.721 17.6388 158.813 14.4137C159.686 14.4137 160.517 14.4596 161.391 14.4596C161.345 19.3894 161.391 24.3618 161.391 29.2915C158.767 27.0811 156.185 24.7789 153.607 22.5226C152.132 21.2778 150.707 20.0364 149.324 18.6997C149.278 21.9708 149.324 25.1927 149.278 28.4638H146.7C146.7 23.4422 146.654 18.4698 146.7 13.4941ZM61.5879 28.4178C64.35 23.4422 67.0694 18.4238 69.9234 13.4941C72.5935 18.4698 75.221 23.4422 77.9371 28.4178H75.083C74.4874 27.311 73.919 26.1896 73.3785 25.0547C70.9842 25.0088 68.636 25.0547 66.2385 25.0547C65.6407 26.1616 65.0397 27.311 64.396 28.4178C63.4304 28.4638 62.5075 28.4638 61.5879 28.4178ZM67.3912 22.9824H72.2717C71.444 21.4617 70.7511 19.9411 69.8774 18.4698C69.0038 19.9871 68.2189 21.4617 67.3912 22.9824ZM101.196 14.8308C102.579 14.1411 104.146 14.0951 105.617 14.371C106.908 14.6469 107.919 15.5697 108.704 16.5353C108.015 16.9032 107.322 17.225 106.632 17.5961C105.712 16.1675 103.545 15.7077 102.211 16.8145C101.522 17.3203 101.567 18.565 102.349 18.9328C104.146 19.8984 106.31 20.1316 107.877 21.465C109.489 22.8477 109.443 25.5638 107.923 26.9925C106.31 28.6051 103.778 28.9729 101.659 28.3752C99.8629 27.9154 98.5262 26.3028 98.2963 24.5063C99.17 24.3223 100.047 24.1844 100.92 24.0465C101.012 24.8741 101.334 25.843 102.165 26.2568C103.41 26.9465 105.252 26.7626 106.126 25.5211C106.724 24.6935 106.54 23.4028 105.712 22.805C103.962 21.6522 101.659 21.5603 100.047 20.0889C99.2192 19.3992 98.8941 18.2004 99.1732 17.1396C99.3999 16.0722 100.277 15.2906 101.196 14.8308ZM78.768 14.5089C79.7336 14.371 80.7484 14.417 81.7173 14.417C82.7781 15.9836 83.8356 17.5502 84.8505 19.1135C85.9573 17.5469 87.0148 15.9803 88.1216 14.4629C89.1365 14.417 90.148 14.417 91.1629 14.4629C89.5503 16.6733 87.9377 18.8836 86.3744 21.1399C87.987 23.6261 89.7835 25.9743 91.3961 28.5098H88.496C87.2513 26.7593 86.0558 24.9628 84.857 23.2123C83.6123 24.9628 82.3249 26.7133 81.0801 28.5098H78.1801C79.8846 26.0236 81.6352 23.6294 83.4317 21.1859C81.8519 18.9296 80.2886 16.7192 78.768 14.5089ZM93.5506 14.4596C94.4093 14.4137 95.2699 14.4137 96.1287 14.4596V28.4605H93.5046C93.5506 23.764 93.5046 19.1135 93.5506 14.4596ZM118.836 14.4137C121.047 14.5056 123.441 14.0918 125.513 15.1953C127.494 16.2562 127.953 19.4321 126.111 20.8607C127.264 21.3205 128.413 22.1974 128.689 23.4389C129.195 25.0055 128.321 26.71 126.939 27.5377C124.452 28.9203 121.549 28.2733 118.833 28.4573C118.79 23.81 118.836 19.1135 118.836 14.4137ZM121.418 16.4434V20.4502C122.383 20.4042 123.444 20.4502 124.272 19.8524C125.099 19.1168 125.099 17.5502 124.134 16.9032C123.352 16.3941 122.337 16.4434 121.418 16.4434ZM121.418 22.2894V26.3882C122.708 26.3422 124.088 26.5721 125.287 25.9284C126.347 25.4226 126.531 23.718 125.562 23.0283C124.41 22.0595 122.843 22.2894 121.418 22.2894ZM164.435 14.4137H167.013V19.9411C169.132 18.0527 171.296 16.2562 173.46 14.3677H177.007C174.475 16.4401 171.94 18.5584 169.408 20.7228C171.894 23.3469 174.429 25.8364 176.961 28.3686C175.809 28.3686 174.613 28.4605 173.46 28.3226C171.434 26.2962 169.454 24.2238 167.473 22.1514L167.059 22.7032C167.013 24.5917 167.059 26.4801 167.013 28.3686H164.389C164.389 23.764 164.389 19.1135 164.435 14.4137ZM32.1575 28.3719C36.9919 28.3719 41.8297 28.3259 46.6641 28.4178C49.5642 33.4395 52.5134 38.4119 55.3675 43.4796C50.533 43.5255 45.6953 43.4796 40.8608 43.4796C38.0068 38.4119 35.0115 33.4362 32.1575 28.3719Z" fill="#AE285D"/>
</svg>
