<svg width="231" height="41" viewBox="0 0 231 41" fill="none" xmlns="http://www.w3.org/2000/svg">
<g clip-path="url(#clip0_19_3926)">
<path d="M0.00683594 1.25513H230.954V39.7431H0.00683594V1.25513Z" fill="#004C8F"/>
<path d="M38.499 1.25513H230.954V39.7431H38.499V1.25513Z" fill="#004C8F"/>
<path d="M50.7383 29.6058V11.3949H56.7295V17.5414H62.3435V11.3949H68.3435V29.6058H62.3435V22.5401H56.7295V29.6058H50.7383ZM77.8246 15.9199H79.3777C80.4956 15.9199 81.3136 16.0357 81.8364 16.2682C82.2233 16.4371 82.5377 16.6896 82.8136 17.0668C83.0654 17.4392 83.2688 17.9089 83.4184 18.4993C83.5544 19.0848 83.6268 19.7041 83.6268 20.3572C83.6268 21.4221 83.482 22.3124 83.1667 23.0339C82.8619 23.7545 82.4219 24.2725 81.8557 24.5918C81.2895 24.9168 80.4474 25.0712 79.3342 25.0712L77.8246 25.0808V15.9199ZM80.1377 29.6058C81.5509 29.6058 82.7219 29.49 83.6798 29.2334C84.6434 28.9865 85.4268 28.6575 86.0268 28.265C86.6372 27.8629 87.1882 27.3216 87.6965 26.6484C88.2 25.9519 88.6407 25.076 88.9834 24.0023C89.3373 22.9326 89.5062 21.7269 89.5062 20.3628C89.5062 18.3593 89.1241 16.6655 88.3504 15.2523C87.5662 13.8682 86.5013 12.866 85.1412 12.2765C83.7868 11.6853 82.1702 11.3949 80.2921 11.3949H71.9637V29.6058H80.1377ZM92.2512 29.6058V11.3949H106.459V15.8861H98.1644V18.8041H104.8V23.1738H98.1644V29.6058H92.2512ZM126.523 18.3593H120.866C120.76 17.4537 120.431 16.7379 119.884 16.2247C119.332 15.7212 118.64 15.4743 117.788 15.4743C116.728 15.4743 115.867 15.8861 115.204 16.6993C114.537 17.5221 114.202 18.8524 114.202 20.6821C114.202 21.9594 114.352 22.9181 114.628 23.5712C114.914 24.2436 115.315 24.7277 115.814 25.0519C116.327 25.376 116.951 25.5264 117.72 25.5264C118.64 25.5264 119.375 25.2932 119.913 24.7615C120.464 24.2629 120.784 23.5181 120.891 22.5208H126.649C126.523 23.6532 126.295 24.6015 125.967 25.376C125.653 26.1457 125.091 26.9106 124.331 27.6795C123.552 28.4652 122.615 29.0773 121.582 29.4755C120.522 29.8961 119.298 30.0948 117.895 30.0948C116.511 30.0948 115.219 29.8961 114.052 29.49C112.872 29.0734 111.874 28.483 111.081 27.7422C110.272 26.9733 109.643 26.1119 109.194 25.1387C108.545 23.7698 108.24 22.2642 108.24 20.5848C108.24 19.1813 108.467 17.8502 108.928 16.6317C109.387 15.4212 110.021 14.3909 110.829 13.5585C111.642 12.7301 112.528 12.1108 113.515 11.6949C114.763 11.1625 116.138 10.9067 117.662 10.9067C118.988 10.9067 120.217 11.0998 121.379 11.4915C122.535 11.884 123.484 12.455 124.224 13.2151C124.969 13.9652 125.557 14.8567 125.952 15.8371C126.242 16.5296 126.427 17.3668 126.523 18.3593ZM145.712 15.4944C146.559 15.4944 147.106 15.533 147.377 15.6103C147.71 15.7052 148.006 15.9014 148.223 16.1717C148.436 16.4427 148.548 16.7572 148.548 17.1207C148.548 17.5848 148.364 17.9668 148.011 18.2572C147.633 18.5628 146.989 18.7028 146.064 18.7028H143.81V15.4936L145.712 15.4944ZM147.216 29.6058C148.635 29.6058 149.631 29.5382 150.217 29.4128C150.829 29.2634 151.424 29.0524 151.994 28.783C152.584 28.4733 153.039 28.183 153.338 27.8637C153.803 27.4326 154.147 26.9106 154.398 26.2808C154.65 25.6471 154.776 24.9312 154.776 24.1615C154.776 23.0629 154.505 22.158 153.954 21.4221C153.402 20.6821 152.661 20.1931 151.727 19.9269C153.309 18.9296 154.098 17.6427 154.098 16.0743C154.098 14.4537 153.402 13.2151 152.022 12.373C150.958 11.7239 149.298 11.3949 147.047 11.3949H138.012V29.6058H147.216ZM146.254 21.9787C147.44 21.9787 148.209 22.1234 148.596 22.4291C148.954 22.7242 149.148 23.1304 149.148 23.6773C149.148 24.2291 148.954 24.665 148.562 24.9698C148.189 25.294 147.411 25.4291 146.254 25.4291H143.81V21.9787H146.254ZM167.935 23.4843H164.126L166.004 16.8585L167.935 23.4843ZM162.335 29.6058L163.027 27.2154H168.989L169.686 29.6058H175.644L169.111 11.3949H163.027L156.489 29.6058H162.335ZM178.16 29.6058V11.3949H183.74L190.036 21.1462V11.3949H195.775V29.6058H190.075L183.914 20.0966V29.6058H178.16ZM199.768 29.6058V11.3949H205.571V17.4006L210.986 11.3949H218.022L211.349 18.2524L218.715 29.6058H211.543L207.163 22.3511L205.57 23.9243V29.6058H199.768Z" fill="white"/>
<path d="M0.00683594 1.25513H38.4948V39.7431H0.00683594V1.25513Z" fill="#ED232A"/>
<path d="M6.74316 7.99072H31.7631V33.0106H6.74316V7.99072Z" fill="white"/>
<path d="M17.3271 1.25513H21.1749V39.7431H17.3271V1.25513Z" fill="white"/>
<path d="M0.0078125 18.5791H38.4958V22.4268H0.0078125V18.5791Z" fill="white"/>
<path d="M13.4805 14.7278H25.027V26.275H13.4805V14.7278Z" fill="#004C8F"/>
</g>
<defs>
<clipPath id="clip0_19_3926">
<rect width="230.947" height="40" fill="white" transform="translate(0.00683594 0.5)"/>
</clipPath>
</defs>
</svg>
