<svg width="113" height="41" viewBox="0 0 113 41" fill="none" xmlns="http://www.w3.org/2000/svg">
<path fill-rule="evenodd" clip-rule="evenodd" d="M40.3614 21.7524L35.4688 39.898H42.3427L47.2353 21.7524H40.3614ZM61.8814 28.6411H68.2491C68.3675 28.0436 68.4006 27.3152 68.3477 26.4578C68.2935 25.5986 67.9977 24.7776 67.4596 23.9931C66.9208 23.2092 66.0562 22.5364 64.8668 21.9765C63.6775 21.4167 61.9945 21.1364 59.819 21.1364C58.4253 21.1364 57.0531 21.3276 55.7044 21.7106C54.3552 22.0936 53.1081 22.6863 51.962 23.4894C50.816 24.2924 49.8004 25.3189 48.9141 26.5701C48.0278 27.8201 47.3508 29.3139 46.8824 31.0502C46.1175 33.8872 46.4266 36.1093 47.8096 37.7148C49.1931 39.3197 51.5429 40.1598 54.8596 40.2344C56.3015 40.2906 57.6959 40.1317 59.0428 39.7582C60.3897 39.3848 61.6253 38.8524 62.7515 38.1629C63.8777 37.4722 64.85 36.6644 65.6701 35.74C66.4903 34.8157 67.0832 33.831 67.4481 32.7854H60.7649C60.4768 33.3829 60.1497 33.8728 59.7818 34.2558C59.4156 34.6388 59.0326 34.9418 58.6345 35.1658C58.2365 35.3899 57.836 35.544 57.4331 35.6277C57.0303 35.7113 56.6593 35.7538 56.3214 35.7538C55.4345 35.7538 54.7724 35.5064 54.3359 35.0117C53.8988 34.5169 53.6384 33.8961 53.5548 33.1492C53.4707 32.4036 53.553 31.5915 53.7996 30.7138C54.04 29.8509 54.4111 29.0293 54.8999 28.2772C55.3864 27.5303 55.9606 26.9095 56.6214 26.416C57.2834 25.9212 58.0044 25.6739 58.7854 25.6739C58.9544 25.6739 59.1967 25.6786 59.51 25.6876C59.8244 25.6972 60.1443 25.7856 60.4684 25.9535C60.7925 26.1214 61.0896 26.4112 61.3583 26.8205C61.6289 27.2316 61.8027 27.838 61.8814 28.6411ZM72.3877 21.7524L67.495 39.898H74.3689L79.261 21.7524H72.3877ZM93.9083 28.6411H100.276C100.394 28.0436 100.427 27.3152 100.373 26.4578C100.32 25.5986 100.025 24.7776 99.4852 23.9931C98.9471 23.2092 98.083 22.5364 96.8931 21.9765C95.7025 21.4161 94.0207 21.1364 91.8447 21.1364C90.4509 21.1364 89.08 21.3276 87.7307 21.7106C86.3814 22.0936 85.1343 22.6863 83.9877 23.4894C82.8428 24.2924 81.8267 25.3189 80.9404 26.5701C80.0535 27.8201 79.377 29.3139 78.9086 31.0502C78.1444 33.8872 78.4529 36.1093 79.8364 37.7148C81.22 39.3197 83.5698 40.1598 86.8865 40.2344C88.2973 40.294 89.7089 40.1334 91.0696 39.7582C92.4153 39.3848 93.6521 38.8524 94.7784 38.1629C95.9046 37.4722 96.8768 36.6644 97.697 35.74C98.5153 34.8157 99.1088 33.831 99.475 32.7854H92.7917C92.5037 33.3829 92.1766 33.8728 91.8086 34.2558C91.4406 34.6388 91.0582 34.9418 90.6601 35.1658C90.2621 35.3899 89.8616 35.544 89.4588 35.6277C89.0559 35.7113 88.6861 35.7538 88.3476 35.7538C87.4607 35.7538 86.7987 35.5064 86.3616 35.0117C85.9244 34.5169 85.6653 33.8961 85.5805 33.1492C85.4969 32.4036 85.5793 31.5915 85.8258 30.7138C86.0723 29.8361 86.4397 29.0241 86.9262 28.2772C87.4126 27.5303 87.9868 26.9095 88.6477 26.416C89.3091 25.9212 90.03 25.6739 90.8123 25.6739C90.9812 25.6739 91.2224 25.6786 91.5368 25.6876C91.8501 25.6972 92.17 25.7856 92.4941 25.9535C92.8194 26.1214 93.1152 26.4112 93.3852 26.8205C93.6545 27.2316 93.8295 27.838 93.9083 28.6411ZM104.413 21.7524L99.5207 39.898H106.395L111.288 21.7524H104.413ZM24.6198 8.90133C26.1224 7.06699 26.4874 4.8861 25.4321 4.0478C24.3769 3.20891 22.2898 4.02151 20.7866 5.85645C19.284 7.69138 18.919 9.87167 19.9743 10.7106C21.0301 11.5489 23.1166 10.7363 24.6198 8.90133ZM27.975 29.0988C35.8548 19.2973 37.6394 7.64956 31.9465 3.17007C26.2535 -1.31001 15.1832 3.03085 7.30278 12.8317C-0.577061 22.6332 -2.36168 34.2815 3.33129 38.7616C4.66675 39.812 6.29803 40.3778 8.11452 40.5003C9.62013 39.9088 10.6423 38.3451 10.9694 37.4626C11.323 36.5078 14.6523 27.4652 15.063 23.0514C15.366 19.7873 14.0462 19.6391 13.294 19.9378C12.5364 20.239 11.1715 20.9428 10.2623 20.9918C9.35256 21.0432 9.25155 20.4899 9.75723 19.8374C10.2623 19.185 17.3905 12.4816 20.0152 12.8072C22.0367 13.0582 22.3902 15.1172 21.9351 16.4227C21.4799 17.7283 19.964 23.3526 19.3579 26.2642C18.7513 29.177 18.0435 33.2454 18.2462 34.8007C18.4013 35.9981 18.8853 36.5711 19.4914 36.8639C22.4606 34.9418 25.3894 32.3145 27.975 29.0988Z" fill="#5B5F60"/>
<path fill-rule="evenodd" clip-rule="evenodd" d="M41.5723 20.8484L36.6797 38.9941H43.5536L48.4462 20.8484H41.5723ZM63.0935 27.7371H69.46C69.5796 27.1396 69.6115 26.4112 69.5586 25.5526C69.5045 24.6934 69.2086 23.8724 68.6705 23.0891C68.1317 22.3052 67.2683 21.6324 66.0777 21.0725C64.8878 20.5121 63.2054 20.2324 61.0299 20.2324C59.6362 20.2324 58.264 20.4236 56.9147 20.8066C55.5753 21.1852 54.3101 21.7866 53.1729 22.5854C52.0275 23.3872 51.0113 24.4144 50.125 25.6649C49.2387 26.9155 48.5617 28.4099 48.0939 30.145C47.3291 32.9832 47.6375 35.2041 49.0211 36.8096C50.4046 38.4151 52.7544 39.2558 56.0711 39.3304C57.482 39.3901 58.8935 39.2294 60.2543 38.8542C61.6012 38.4808 62.838 37.9484 63.9642 37.2577C65.0892 36.567 66.0627 35.7592 66.8816 34.836C67.7012 33.9117 68.2947 32.927 68.6609 31.8814H61.9764C61.6883 32.4789 61.3612 32.9688 60.9945 33.3518C60.6271 33.7348 60.2441 34.0378 59.846 34.2618C59.448 34.4859 59.0475 34.64 58.6446 34.7237C58.2418 34.8073 57.8708 34.8498 57.5335 34.8498C56.6454 34.8498 55.9839 34.6024 55.5474 34.1077C55.1109 33.6129 54.8505 32.9921 54.767 32.2452C54.6834 31.4984 54.7651 30.6864 55.0123 29.8086C55.2594 28.9321 55.6262 28.1201 56.1126 27.3732C56.5991 26.6263 57.1727 26.0055 57.8347 25.5108C58.4961 25.016 59.2171 24.7687 59.9981 24.7687C60.1671 24.7687 60.4094 24.7735 60.7239 24.7824C61.0372 24.792 61.357 24.8804 61.6811 25.0483C62.0052 25.2162 62.3023 25.506 62.571 25.9165C62.8398 26.3276 63.0136 26.9346 63.0935 27.7371ZM73.598 20.8484L68.7059 38.9941H75.5792L80.4719 20.8484H73.598ZM95.1186 27.7371H101.486C101.605 27.1396 101.638 26.4112 101.584 25.5526C101.531 24.6934 101.235 23.8724 100.696 23.0891C100.157 22.3052 99.2933 21.6324 98.1034 21.0725C96.9134 20.5127 95.231 20.2324 93.0556 20.2324C91.6618 20.2324 90.2897 20.4236 88.9404 20.8066C87.5911 21.1896 86.344 21.7823 85.1986 22.5854C84.0525 23.3872 83.0364 24.4144 82.1501 25.6649C81.2638 26.9155 80.5867 28.4099 80.1183 30.145C79.3541 32.9832 79.6626 35.2041 81.0461 36.8096C82.4297 38.4151 84.7795 39.2558 88.0962 39.3304C89.5381 39.3866 90.9325 39.2277 92.2793 38.8542C93.6262 38.4808 94.8619 37.9484 95.9881 37.2577C97.1143 36.567 98.0865 35.7592 98.9067 34.836C99.7262 33.9117 100.319 32.927 100.685 31.8814H94.0014C93.7134 32.4789 93.3863 32.9688 93.0183 33.3518C92.6521 33.7348 92.2691 34.0378 91.8711 34.2618C91.4718 34.4859 91.0714 34.64 90.6685 34.7237C90.2656 34.8073 89.8958 34.8498 89.5573 34.8498C88.6704 34.8498 88.0084 34.6024 87.5725 34.1077C87.1353 33.6129 86.875 32.9921 86.7914 32.2452C86.7066 31.4984 86.789 30.6864 87.0355 29.8086C87.2833 28.9321 87.6494 28.1201 88.1359 27.3732C88.6223 26.6263 89.1965 26.0055 89.8574 25.5108C90.5182 25.016 91.2409 24.7687 92.022 24.7687C92.1909 24.7687 92.4333 24.7735 92.7465 24.7824C93.061 24.792 93.3809 24.8804 93.705 25.0483C94.0291 25.2162 94.3261 25.506 94.5949 25.9165C94.8637 26.327 95.0404 26.9346 95.1186 27.7371ZM105.625 20.8484L100.732 38.9941H107.606L112.499 20.8484H105.625Z" fill="#33348D"/>
<path fill-rule="evenodd" clip-rule="evenodd" d="M25.8309 7.99786C27.3341 6.16293 27.6985 3.98264 26.6432 3.14374C25.588 2.30485 23.5009 3.11745 21.9983 4.95238C20.4951 6.78732 20.1307 8.96761 21.186 9.80651C22.2412 10.6454 24.3277 9.8328 25.8309 7.99786ZM29.1861 28.1953C37.0665 18.3932 38.8505 6.74609 33.1576 2.26601C27.4646 -2.21408 16.3949 2.12679 8.51389 11.9282C0.633445 21.7303 -1.15057 33.3781 4.5424 37.8569C5.87785 38.9086 7.50914 39.4732 9.32622 39.5969C10.8312 39.0041 11.854 37.4405 12.1811 36.5592C12.5347 35.6043 15.864 26.5617 16.2747 22.1468C16.5777 18.8832 15.2579 18.735 14.5057 19.0338C13.7481 19.3355 12.3838 20.0382 11.474 20.0884C10.5643 20.1385 10.4633 19.5865 10.9683 18.9334C11.474 18.2809 18.6017 11.5769 21.2269 11.9032C23.2478 12.1541 23.6019 14.2131 23.1468 15.5187C22.6922 16.8242 21.1764 22.4479 20.5697 25.3607C19.9636 28.2736 19.2558 32.3408 19.4579 33.8973C19.613 35.0935 20.097 35.6677 20.7031 35.9593C23.6723 34.0383 26.6005 31.4105 29.1861 28.1953Z" fill="#D2562E"/>
<path fill-rule="evenodd" clip-rule="evenodd" d="M25.8308 7.99784C27.334 6.1629 27.6984 3.98261 26.6431 3.14372C25.5879 2.30482 23.5008 3.11742 21.9982 4.95236C20.495 6.78729 20.1306 8.96759 21.1859 9.80648C22.2411 10.6454 24.3276 9.83277 25.8308 7.99784ZM30.6525 23.72C37.2017 15.5031 38.1836 5.73689 32.8388 1.98157C27.4939 -1.77434 17.7928 1.86446 11.2436 10.0825C4.69442 18.3 3.71252 28.065 9.05734 31.8215C10.2864 32.6849 11.7463 33.1563 13.3445 33.2723C14.4635 29.9824 16.0034 25.059 16.274 22.1473C16.577 18.8838 15.2572 18.7356 14.505 19.0343C13.7474 19.3361 12.3831 20.0387 11.4733 20.0889C10.5636 20.1391 10.4625 19.587 10.9676 18.934C11.4733 18.2815 18.6009 11.5775 21.2262 11.9037C23.2471 12.1547 23.6012 14.2137 23.1461 15.5192C22.6915 16.8248 21.1756 22.4485 20.5689 25.3613C20.1204 27.5153 19.6171 30.3027 19.4668 32.2362C23.3589 30.7604 27.3953 27.8069 30.6525 23.72Z" fill="#BA2A2F"/>
</svg>
