<svg width="197" height="41" viewBox="0 0 197 41" fill="none" xmlns="http://www.w3.org/2000/svg">
<rect width="196.157" height="40" transform="translate(0.954102 0.5)" fill="#00836C"/>
<path d="M51.1269 20.5C51.1269 31.5471 42.1741 40.5 31.1269 40.5C20.0798 40.5 11.127 31.5471 11.127 20.5C11.127 9.45288 20.0798 0.5 31.1269 0.5C42.1741 0.5 51.1269 9.45288 51.1269 20.5ZM58.0379 27.411C58.0379 26.5209 58.0379 25.6832 58.0903 24.7932V14.8455C57.9856 14.0078 58.0903 13.1178 57.9856 12.2277C57.9332 11.5995 57.9856 10.9712 57.9332 10.3429C57.8809 10.1335 57.8809 9.87172 57.8285 9.60994C57.7238 9.29581 57.9332 9.24346 58.195 9.29581C59.1374 9.29581 60.0798 9.34816 61.0746 9.34816C61.7028 9.29581 62.3311 9.34817 62.9594 9.29581C62.9594 9.76702 62.907 10.1859 62.907 10.6047C62.8547 11.2853 62.8023 12.0183 62.8023 12.699C62.75 13.2749 62.75 13.8508 62.75 14.4267C62.75 16.1021 62.6976 17.7251 62.6976 19.4005V24.4267C62.75 25.4215 62.6976 26.4686 62.75 27.4633C62.75 28.301 62.8023 29.0864 62.8547 29.9241C62.907 30.3953 62.9594 30.8665 62.9594 31.3377C62.5929 31.2853 62.2264 31.3377 61.8599 31.2853C60.9699 31.2853 60.1322 31.233 59.2421 31.2853C58.8233 31.2853 58.4568 31.3377 58.0379 31.3377C57.7238 31.4948 57.8285 31.1806 57.8285 30.9712C57.8809 30.7094 57.8809 30.4476 57.9332 30.1859C57.9856 29.4529 57.9332 28.7199 58.0379 28.0393V27.411ZM71.6505 29.1911C72.6976 29.2958 73.6924 29.3482 74.7919 29.3482C76.0484 29.3482 77.3049 29.0864 78.4044 28.4581C79.2421 27.9869 79.9751 27.3063 80.4463 26.4686C80.7604 26.0497 80.9699 25.5262 81.1793 25.055C81.5458 24.0602 81.8075 22.9084 81.9123 21.8089C82.017 20.7094 82.017 19.6099 81.9646 18.5105C81.9123 17.5157 81.7028 16.4686 81.3363 15.5262C81.0222 14.8455 80.6557 14.1649 80.1322 13.589C79.661 13.0654 79.085 12.6466 78.4568 12.3325C78.0379 12.1754 77.6191 11.9136 77.1479 11.8613C75.6819 11.4424 74.1636 11.4948 72.6453 11.5995C72.2788 11.5995 71.9646 11.6518 71.5981 11.6518C71.5458 16.1545 71.5458 20.6571 71.5458 25.1073C71.6505 26.4686 71.6505 27.8298 71.6505 29.1911ZM66.8861 27.6204C66.9384 25.5262 66.9384 23.4319 66.9384 21.2853C66.9908 20.0288 66.8861 18.7199 66.9384 17.4633C66.9384 15.5262 66.8861 13.5366 66.8337 11.5995C66.729 11.0759 66.8337 10.5 66.729 9.97643C66.729 9.81937 66.4672 9.1911 66.8337 9.34816C67.462 9.45288 68.1426 9.55759 68.8233 9.55759C69.5562 9.60995 70.3416 9.6623 71.1269 9.60994C71.7552 9.50523 72.4358 9.55759 73.0641 9.50523C74.0589 9.45288 75.0013 9.34816 75.9437 9.34816C76.9908 9.29581 78.0903 9.34817 79.1898 9.50523C79.9751 9.60995 80.7081 9.87173 81.4411 10.0812C82.174 10.3953 82.907 10.7618 83.5877 11.2853C84.4253 11.9136 85.2107 12.7513 85.7343 13.6414C86.2578 14.5314 86.6767 15.5785 86.8861 16.6257C87.0955 17.3063 87.1479 17.9869 87.2002 18.7199C87.2526 19.5576 87.2526 20.3429 87.2002 21.1806C87.1479 21.8089 87.0955 22.4895 86.9384 23.0654C86.8337 23.6414 86.6767 24.1649 86.5196 24.6885C86.1531 25.788 85.6295 26.7827 84.8966 27.6728C84.4253 28.1963 84.0065 28.6675 83.4306 29.0864C82.5405 29.8194 81.4934 30.3429 80.3939 30.7618C79.7133 30.9712 79.0327 31.1806 78.2997 31.2853C76.729 31.5995 75.0536 31.5471 73.483 31.4424C72.75 31.4424 72.0693 31.3377 71.3364 31.3377C70.3416 31.233 69.2945 31.1806 68.2997 31.2853C67.7761 31.3377 67.2526 31.39 66.729 31.4948C66.7814 31.0759 66.8337 30.6571 66.8337 30.2382C66.8337 29.4005 66.8337 28.5105 66.8861 27.6204ZM94.7918 29.1387C95.4725 29.1911 96.1531 29.2958 96.8861 29.1911C97.3573 29.0864 97.8285 28.9817 98.2997 28.7722C98.5091 28.6675 98.6662 28.5105 98.8756 28.4058C99.085 28.2487 99.2945 28.0393 99.4515 27.7775C99.6086 27.5681 99.7133 27.3063 99.8704 27.0445C100.027 26.678 100.132 26.2592 100.185 25.8403C100.185 25.4215 100.237 25.0026 100.237 24.5838C100.132 24.322 100.237 23.9031 100.08 23.6414C99.9751 23.2225 99.8704 22.8037 99.5562 22.4372C99.4515 22.2277 99.2945 22.0183 99.085 21.9136C98.928 21.7042 98.6662 21.5471 98.4568 21.39C98.195 21.3377 98.0379 21.1283 97.7761 21.1283C97.462 21.0236 97.0955 20.9188 96.729 20.9188C96.2578 20.7618 95.6819 20.8665 95.1583 20.8141C94.6871 20.7094 94.6348 20.9712 94.6871 21.3377C94.7918 23.9555 94.7918 26.5733 94.7918 29.1387ZM94.7918 18.8246C95.5248 18.8246 96.3102 18.877 96.9908 18.6675C97.3573 18.5628 97.7238 18.4581 98.0379 18.1963C98.4044 17.9869 98.6662 17.7251 98.928 17.411C99.1898 17.0969 99.3992 16.678 99.5039 16.2592C99.6086 15.9974 99.6609 15.7356 99.6609 15.4738C99.7133 15.0026 99.7657 14.5314 99.6609 14.1126C99.6609 13.7984 99.5562 13.4843 99.3992 13.2225C99.2421 12.8037 98.928 12.4895 98.6138 12.2277C98.3521 11.966 97.9856 11.8613 97.6714 11.7042C96.8337 11.4424 95.8913 11.39 95.0013 11.5471C94.6348 11.5471 94.8966 12.0183 94.8442 12.2801C94.7918 14.4267 94.7918 16.6257 94.7918 18.8246ZM90.1321 27.411C90.1321 25.9974 90.1322 24.6361 90.1845 23.2225C90.2369 21.3377 90.1845 19.4005 90.1845 17.5157C90.1322 16.6257 90.1845 15.6832 90.1321 14.7932C90.1321 13.6937 90.1322 12.5419 90.0798 11.4424C90.0275 10.9712 90.0274 10.5 89.9751 10.0288C90.0274 9.81937 89.8704 9.45288 90.0274 9.34816C90.9698 9.34816 91.9123 9.40052 92.907 9.40052C94.0065 9.34817 95.106 9.40052 96.2055 9.34816C97.3049 9.34816 98.4044 9.24345 99.5039 9.45287C99.9227 9.50523 100.342 9.55759 100.76 9.71465C101.284 9.81937 101.703 10.0288 102.174 10.2382C102.436 10.4476 102.75 10.5524 103.012 10.7618C103.378 11.0759 103.745 11.4424 104.059 11.8613C104.321 12.2277 104.478 12.6989 104.582 13.1702C104.687 13.6937 104.739 14.2696 104.635 14.7932C104.582 15.3168 104.478 15.8403 104.216 16.2592C104.006 16.7827 103.64 17.2539 103.221 17.6728C102.855 18.0393 102.436 18.301 102.017 18.5628C101.598 18.7722 101.179 18.9817 100.708 19.1387C100.446 19.1911 100.237 19.2435 99.9751 19.3482C100.237 19.4005 100.499 19.5052 100.76 19.5576C101.127 19.6623 101.389 19.8194 101.755 19.9241C102.279 20.1859 102.75 20.4476 103.169 20.8141C103.692 21.233 104.111 21.7042 104.425 22.2801C104.739 22.9084 105.001 23.589 105.054 24.322C105.158 25.3167 105.054 26.3115 104.739 27.2539C104.53 27.7775 104.268 28.301 103.902 28.7722C103.64 29.0864 103.326 29.4529 103.012 29.6623C102.593 30.0288 102.069 30.2906 101.598 30.5524C100.97 30.8141 100.342 30.9712 99.7133 31.1283C98.8756 31.233 98.0903 31.2853 97.2526 31.2853C96.1531 31.233 95.0013 31.2853 93.9018 31.233H91.7028C91.2316 31.2853 90.7081 31.2853 90.1845 31.2853C89.9227 31.2853 90.1322 30.8665 90.0798 30.6571C90.1322 30.1859 90.1322 29.767 90.1845 29.2435C90.0798 28.6675 90.0798 28.0393 90.1321 27.411ZM109.818 27.411C109.87 24.5314 109.87 21.6518 109.87 18.7722C109.87 16.6257 109.87 14.4267 109.818 12.2801C109.766 11.8613 109.818 11.4424 109.766 11.0236C109.766 10.6571 109.713 10.2906 109.713 9.92408C109.661 9.71466 109.661 9.50523 109.661 9.34816C110.237 9.40052 110.813 9.40052 111.389 9.40052C111.912 9.45288 112.488 9.40052 113.012 9.45287C113.535 9.40052 114.111 9.45288 114.635 9.40052C114.949 9.34817 114.739 9.71466 114.792 9.92408C114.739 10.3953 114.739 10.8665 114.687 11.3377C114.635 11.8613 114.687 12.3848 114.635 12.9607C114.582 13.4319 114.635 14.0079 114.582 14.4791C114.582 15.6309 114.53 16.8351 114.53 17.9869C114.53 20.6571 114.53 23.3796 114.582 26.0497C114.582 26.678 114.582 27.3063 114.635 27.9346C114.687 28.5628 114.635 29.1911 114.687 29.767C114.635 30.2906 114.739 30.7618 114.739 31.2853C114.792 31.5471 114.373 31.3377 114.164 31.39C113.797 31.39 113.378 31.3377 113.012 31.3377C112.488 31.2853 111.912 31.3377 111.336 31.3377C111.022 31.3901 110.656 31.3377 110.342 31.39C110.08 31.39 109.766 31.4424 109.556 31.39C109.556 31.0235 109.609 30.6571 109.661 30.2906C109.661 29.7147 109.713 29.1387 109.713 28.5105C109.818 28.144 109.818 27.7775 109.818 27.411ZM128.719 29.8194C129.242 29.8194 129.713 29.767 130.237 29.7147C130.446 29.6099 130.76 29.6623 130.97 29.5052C131.179 29.4529 131.389 29.2958 131.598 29.1911C131.912 29.034 132.122 28.7199 132.279 28.4058C132.383 28.1963 132.436 28.0393 132.488 27.8298C132.645 27.3063 132.645 26.678 132.645 26.1021C132.593 25.8927 132.593 25.6309 132.488 25.4215C132.436 25.1597 132.279 24.9503 132.226 24.7408C132.069 24.5314 131.912 24.2173 131.65 24.1126C131.493 23.9555 131.232 23.8508 131.022 23.6937C130.656 23.5366 130.342 23.4843 129.975 23.3796C129.661 23.3272 129.347 23.3272 129.033 23.2749C128.823 23.2749 128.457 23.1702 128.614 23.4843C128.614 25.212 128.614 26.9921 128.666 28.7199C128.666 28.9817 128.666 29.2958 128.719 29.5576C128.719 29.6099 128.666 29.767 128.719 29.8194ZM132.541 18.6675C132.541 18.2487 132.541 17.8298 132.383 17.5157C132.279 17.2539 132.174 17.0445 132.017 16.8351C131.86 16.678 131.703 16.5209 131.546 16.4162C131.336 16.3115 131.179 16.2068 130.97 16.1544C130.76 16.0497 130.499 16.0497 130.237 15.945C129.766 15.8403 129.294 15.8403 128.823 15.8403C128.771 16.1021 128.771 16.4686 128.771 16.7827C128.719 16.9921 128.719 17.2539 128.719 17.5157C128.666 18.9293 128.666 20.3429 128.666 21.7565C129.137 21.7565 129.556 21.7042 130.027 21.7042C130.289 21.6518 130.603 21.6518 130.865 21.5471C131.127 21.4948 131.336 21.3377 131.546 21.1806C131.65 21.0759 131.755 20.9188 131.912 20.7618C132.174 20.3953 132.279 20.0288 132.436 19.6099C132.383 19.2958 132.541 18.9817 132.541 18.6675ZM131.127 22.3848C131.755 22.4372 132.383 22.4372 133.012 22.5419C133.326 22.5419 133.588 22.6989 133.902 22.7513C134.111 22.8037 134.321 22.856 134.478 22.9607C134.687 23.0654 134.949 23.1702 135.158 23.2749C135.315 23.4319 135.525 23.589 135.682 23.7461C135.839 23.9031 135.996 24.1126 136.101 24.322C136.153 24.479 136.258 24.6361 136.31 24.8455C136.363 25.1073 136.467 25.3691 136.52 25.6309C136.624 26.2068 136.572 26.8351 136.52 27.411C136.467 27.7775 136.363 28.0916 136.258 28.4058C136.153 28.6675 136.048 28.9293 135.891 29.1387C135.682 29.5052 135.368 29.767 135.054 30.0811C134.739 30.2906 134.425 30.5 134.111 30.6571C133.902 30.7094 133.692 30.8665 133.431 30.9188C133.221 31.0236 132.959 31.0236 132.75 31.1283C132.383 31.1806 132.069 31.2853 131.703 31.2853C130.342 31.3377 128.98 31.2853 127.619 31.2853H124.792C124.844 30.9712 124.844 30.6571 124.844 30.3429C124.897 29.9241 124.844 29.4005 124.949 28.9817C125.001 27.5157 124.949 25.9974 124.949 24.5314C124.897 23.9555 124.949 23.3796 124.897 22.8037C124.897 21.7565 124.844 20.7094 124.844 19.6623C124.844 18.9293 124.792 18.1963 124.792 17.5157V14.4791C125.63 14.4791 126.467 14.5314 127.305 14.5314C127.933 14.5314 128.561 14.5838 129.19 14.5838C130.237 14.6361 131.336 14.5314 132.383 14.7408C132.698 14.8455 133.012 14.8455 133.326 14.9503C133.692 15.055 134.111 15.212 134.425 15.4215C134.635 15.4738 134.792 15.6309 134.949 15.7356C135.211 15.8927 135.368 16.1545 135.63 16.3639C135.682 16.5733 135.839 16.7304 135.944 16.9398C136.048 17.0969 136.101 17.3063 136.153 17.5157C136.258 17.8822 136.258 18.301 136.258 18.7199C136.205 18.9293 136.205 19.1387 136.153 19.3482C136.101 19.6099 135.996 19.8194 135.891 20.0288C135.787 20.2906 135.577 20.5 135.42 20.7094C135.315 20.8665 135.158 20.9712 135.054 21.0759C134.844 21.1806 134.635 21.39 134.425 21.4948C134.268 21.5995 134.059 21.7565 133.849 21.7565C133.692 21.8612 133.483 21.9136 133.273 21.966C133.012 22.0183 132.698 22.1754 132.436 22.1754C132.069 22.2801 131.65 22.2801 131.284 22.3325V22.3848H131.127ZM146.677 24.7408C146.572 24.4267 146.52 24.1126 146.363 23.8508C146.363 23.6414 146.205 23.4843 146.153 23.2749C146.101 23.0654 146.048 22.9084 145.944 22.6989C145.839 22.3325 145.682 22.0183 145.63 21.7042C145.525 21.4424 145.42 21.1283 145.263 20.8665C145.263 20.6571 145.054 20.5 145.054 20.2906C144.897 20.0288 144.792 19.7147 144.687 19.4529C144.582 19.3482 144.582 18.9293 144.478 19.2435C144.425 19.4005 144.321 19.5576 144.268 19.7147L143.797 20.8141C143.692 20.9712 143.692 21.233 143.588 21.3377C143.535 21.5471 143.431 21.7565 143.378 22.0183C143.221 22.2801 143.169 22.5419 143.064 22.8037C142.959 23.1178 142.802 23.4319 142.698 23.7984C142.593 23.9555 142.541 24.1649 142.488 24.3743C142.488 24.479 142.226 24.8455 142.541 24.7408C142.959 24.7408 143.431 24.7932 143.902 24.7932C144.792 24.7408 145.734 24.7408 146.677 24.7408ZM153.169 31.1806C152.436 31.1806 151.703 31.233 150.97 31.233C150.289 31.233 149.609 31.2853 148.928 31.2853C148.823 31.0236 148.771 30.7618 148.719 30.5524C148.666 30.3429 148.614 30.1859 148.561 29.9764C148.352 29.5052 148.195 28.9817 148.09 28.5105C147.986 28.144 147.881 27.7775 147.776 27.4633C147.724 27.2539 147.619 27.0445 147.567 26.7827C147.514 26.678 147.462 26.4686 147.357 26.4162H141.65C141.546 26.678 141.441 26.9398 141.389 27.2016C141.179 27.7775 140.917 28.3534 140.76 28.9293C140.551 29.4529 140.394 30.0811 140.184 30.6047C140.132 30.8665 140.027 31.0759 139.923 31.3377C139.399 31.3377 138.876 31.2853 138.352 31.2853C138.195 31.1806 137.776 31.3377 137.776 31.1806C137.828 31.0236 137.881 30.8665 137.986 30.7094C138.195 30.2906 138.352 29.8194 138.561 29.3482C138.719 28.877 138.98 28.4058 139.137 27.8822C139.399 27.411 139.504 26.9398 139.713 26.4686C139.923 25.945 140.184 25.4215 140.394 24.8979C140.499 24.4791 140.708 24.0602 140.865 23.6937C141.022 23.3796 141.075 23.0131 141.284 22.6989C141.493 22.2277 141.65 21.7042 141.86 21.233C142.069 20.7618 142.226 20.2906 142.436 19.8194C142.593 19.4005 142.698 19.034 142.855 18.6152C143.116 17.8822 143.431 17.2016 143.692 16.5209C143.797 16.1544 144.006 15.788 144.111 15.3691L144.582 14.2696C144.687 14.1649 144.844 14.322 145.001 14.322C145.42 14.3743 145.891 14.322 146.31 14.2696C146.834 14.5314 146.834 15.6309 147.148 16.1544C147.462 16.8874 147.776 17.5681 147.986 18.301C148.195 18.7722 148.3 19.2435 148.561 19.7147C148.823 20.4476 149.085 21.1283 149.399 21.8613C149.504 22.123 149.661 22.3325 149.713 22.5942C149.87 22.9607 149.975 23.3796 150.132 23.7461C150.289 24.1649 150.446 24.6361 150.656 25.0026C150.865 25.4738 151.022 25.9974 151.232 26.4686C151.336 26.7827 151.441 27.1492 151.65 27.411C151.912 27.8822 152.017 28.4058 152.226 28.877C152.331 29.2435 152.488 29.5576 152.593 29.8194C152.645 29.9764 152.698 30.1859 152.855 30.2906L153.169 31.0759V31.1806ZM169.556 14.4267C169.504 14.8455 169.451 15.2644 169.451 15.6832C169.399 16.2592 169.399 16.7827 169.347 17.3063C169.294 18.3534 169.242 19.4005 169.294 20.4476C169.19 21.2853 169.294 22.1754 169.242 23.0654C169.347 24.0602 169.242 25.1073 169.294 26.1544C169.294 27.0968 169.399 27.9869 169.399 28.9293C169.399 29.5052 169.451 30.1335 169.451 30.7094C169.451 30.9188 169.504 31.1806 169.451 31.3377C169.033 31.3377 168.719 31.233 168.247 31.233C167.881 31.1806 167.619 31.2853 167.305 31.3377C167.148 31.233 167.043 31.0236 166.886 30.8665C166.729 30.7094 166.624 30.5 166.467 30.3953C166.363 30.1859 166.153 30.1335 166.101 29.9241C165.682 29.5052 165.263 29.034 164.897 28.5628C164.687 28.301 164.425 28.0916 164.216 27.8298C163.954 27.6204 163.849 27.3586 163.588 27.1492C163.221 26.7827 162.855 26.3639 162.488 25.945C162.279 25.788 162.226 25.5785 162.017 25.4738C161.86 25.2644 161.65 25.1073 161.493 24.8455C161.075 24.479 160.708 24.0602 160.342 23.589C160.027 23.3272 159.766 22.9607 159.504 22.6466C159.347 22.4372 159.033 22.2801 158.928 22.0183C158.666 21.8089 158.509 21.4948 158.247 21.2853C157.828 20.9188 157.514 20.5 157.148 20.0811C156.938 19.9764 156.834 19.767 156.624 19.5576V27.4633C156.677 28.6152 156.677 29.7146 156.677 30.8665C156.729 31.0236 156.781 31.4424 156.52 31.2853C156.153 31.233 155.787 31.1806 155.368 31.233C155.106 31.2853 154.844 31.2853 154.53 31.2853V14.4267C155.001 14.3743 155.315 14.4791 155.734 14.4791C155.996 14.5314 156.363 14.5314 156.677 14.4791C156.886 14.4791 157.095 14.4267 157.305 14.3743C157.619 14.7408 157.933 15.1073 158.247 15.4215C158.823 16.1544 159.504 16.7827 160.08 17.5157C160.603 17.9869 160.97 18.5628 161.493 19.034C161.912 19.5576 162.383 19.9764 162.855 20.5C163.326 21.0759 163.849 21.5471 164.268 22.0707C164.792 22.5942 165.211 23.1702 165.734 23.6937C166.258 24.322 166.781 24.8979 167.357 25.4738C167.619 25.8927 167.462 25.2644 167.514 25.1073C167.514 23.7461 167.514 22.3325 167.462 20.9712C167.41 19.2958 167.462 17.5681 167.41 15.8927C167.357 15.3691 167.41 14.8979 167.41 14.3743C167.776 14.4267 168.143 14.4791 168.561 14.4791C168.98 14.5314 169.242 14.5314 169.556 14.4267ZM186.938 31.233H182.226C181.912 30.8141 181.65 30.3429 181.336 29.8717C181.022 29.4005 180.76 28.9293 180.446 28.5105C180.237 28.1963 180.08 27.8822 179.87 27.6204C179.713 27.3063 179.451 26.9921 179.294 26.678C179.033 26.3639 178.823 26.0497 178.614 25.6832C178.457 25.4738 178.3 25.2644 178.195 25.055C178.038 24.8456 177.881 24.5314 177.671 24.322C177.567 24.1126 177.357 23.9031 177.253 23.6937V29.4005C177.357 29.7147 177.253 30.0811 177.305 30.4476C177.305 30.7094 177.357 30.9712 177.41 31.233C176.991 31.233 176.677 31.1806 176.258 31.1806C175.891 31.1283 175.472 31.1806 175.106 31.1283H174.111C173.902 31.1806 173.588 31.1806 173.326 31.1806V26.9398C173.326 25.7356 173.326 24.5314 173.378 23.2749C173.483 22.5419 173.378 21.7565 173.431 20.9712C173.431 19.1387 173.483 17.3063 173.378 15.4738C173.273 15.212 173.378 14.8455 173.326 14.5838C173.273 14.322 173.326 14.2173 173.588 14.322C174.111 14.4267 174.635 14.4267 175.106 14.4791C175.577 14.5314 176.101 14.4267 176.572 14.4267C176.834 14.3743 177.148 14.3743 177.41 14.322C177.357 14.7408 177.305 15.1597 177.305 15.5785C177.253 15.788 177.305 16.0497 177.253 16.2592C177.253 16.8351 177.253 17.411 177.2 17.9869C177.148 19.2958 177.2 20.6571 177.148 22.0183C177.305 21.8089 177.514 21.5995 177.724 21.39L178.509 20.4476C178.823 20.0288 179.19 19.6623 179.504 19.2435C179.766 18.9817 179.975 18.7199 180.184 18.4581L180.813 17.6728C181.022 17.3586 181.284 17.0969 181.493 16.7827C181.703 16.5733 181.86 16.3115 182.069 16.0497C182.226 15.8403 182.436 15.6309 182.54 15.4215C182.698 15.2644 182.802 15.1073 182.907 14.9503C183.116 14.7932 183.169 14.4791 183.431 14.3743C183.797 14.4791 184.268 14.4267 184.687 14.4791C185.211 14.4791 185.787 14.5314 186.205 14.3743C186.572 14.2696 186.258 14.5314 186.101 14.6885C185.787 15.1073 185.42 15.4738 185.106 15.8403C184.792 16.1021 184.53 16.4686 184.268 16.7304C183.902 17.1492 183.535 17.5681 183.169 17.9346C182.75 18.3534 182.436 18.7722 182.017 19.1911C181.546 19.7147 181.075 20.2382 180.603 20.7094C180.446 20.9188 180.184 21.1283 180.027 21.3377C180.342 21.8613 180.76 22.3325 181.075 22.856C181.755 23.7461 182.331 24.6885 183.012 25.5785C183.221 25.8403 183.378 26.1021 183.588 26.3639C183.797 26.678 184.006 26.9398 184.216 27.2539C184.53 27.7775 184.949 28.2487 185.263 28.8246C185.577 29.1911 185.839 29.6099 186.101 30.0288C186.415 30.5 186.677 30.9188 186.938 31.233Z" fill="white"/>
<path d="M31.2126 34.351C33.0974 34.351 34.9822 33.8275 36.5529 32.8327C37.4953 32.2568 38.3854 31.5238 39.066 30.6861C39.5372 30.1625 39.8513 29.5866 40.2178 29.0107C40.7938 27.8589 41.265 26.6023 41.3697 25.2934C41.5267 23.8275 41.422 22.3615 41.0032 20.9479C40.689 19.9008 40.2178 18.8536 39.5896 17.9636C38.7519 16.707 37.6524 15.6076 36.3435 14.8222C36.0294 14.6128 35.8199 14.4557 35.5058 14.2463C35.087 13.9322 34.354 13.5657 33.8304 13.9845C33.3068 14.5081 33.3068 15.3458 33.2545 16.0264C33.2545 21.0002 33.2021 25.9217 33.2545 30.8955C33.2021 31.3144 33.3592 31.8379 32.9404 32.0474C32.5215 32.3091 31.9979 32.4662 31.4744 32.5709C31.0555 32.6756 30.6367 32.5186 30.2178 32.4138C29.8513 32.3091 29.4849 32.1521 29.2231 31.8903C28.8566 31.5761 29.066 31.0002 29.0136 30.529V15.3458C28.9613 14.8222 28.8566 14.1416 28.3854 13.8275C28.176 13.7228 27.9142 13.7228 27.6524 13.8275C27.0765 13.9845 26.6053 14.5081 26.0817 14.7699C25.244 15.2934 24.4587 15.8694 23.778 16.6547C23.2021 17.2306 22.7309 17.9112 22.3121 18.6442C21.6838 19.7437 21.2126 20.9479 21.0032 22.2044C20.7938 23.3563 20.7938 24.5605 20.9508 25.7123C21.2126 27.4924 21.9979 29.1678 23.0974 30.5814C24.1969 31.995 25.7152 32.9898 27.3383 33.7227C28.5948 34.0892 29.9037 34.351 31.2126 34.351ZM31.2126 11.1573H31.6315C31.7362 11.1573 31.7885 11.105 31.8932 11.105L32.1027 11.0002C32.155 10.9479 32.2597 10.9479 32.3121 10.8955L32.5215 10.7908L32.6786 10.6338C32.7833 10.5814 32.7833 10.4767 32.888 10.4243L33.0451 10.2673C33.0974 10.1625 33.1498 10.1102 33.2021 10.0055L33.3068 9.79605L33.4116 9.58663L33.4639 9.3772C33.5163 9.27249 33.4639 9.16778 33.5163 9.11542V8.48715C33.4639 8.38244 33.4639 8.27773 33.4639 8.17302L33.4116 7.96359C33.3592 7.75417 33.2545 7.5971 33.1498 7.44003L32.9927 7.28296C32.9404 7.17825 32.8356 7.12589 32.7833 7.02118C32.6786 7.02118 32.6262 6.91648 32.5739 6.86412L32.4168 6.7594C32.3644 6.70705 32.3121 6.65469 32.2597 6.65469C32.155 6.60234 32.0503 6.54998 31.8932 6.49762C31.8409 6.44527 31.7885 6.39292 31.6838 6.44527H30.9508C30.8461 6.49763 30.7414 6.44527 30.6367 6.49762C30.532 6.54998 30.4273 6.54999 30.3225 6.60234L30.1131 6.70705C30.0084 6.70705 29.9561 6.81176 29.9037 6.81176L29.6943 6.96883C29.5896 6.96883 29.5896 7.07355 29.5372 7.1259L29.3801 7.28296C29.2754 7.38767 29.1707 7.54474 29.1184 7.70181C29.1184 7.75417 29.066 7.80653 29.0136 7.91124L28.9089 8.12066C28.9089 8.22537 28.9089 8.27773 28.8566 8.38244C28.8566 8.59187 28.8042 8.74894 28.8566 8.95836C28.8566 9.06307 28.8566 9.16779 28.9089 9.22014C28.9089 9.32485 28.9613 9.42956 29.0136 9.53427C29.0136 9.63898 29.066 9.63899 29.1184 9.7437L29.2231 9.95312C29.2754 10.0578 29.3801 10.1625 29.4325 10.2673L29.5896 10.4243L29.7466 10.5814L29.9561 10.7385C30.0608 10.7908 30.1655 10.7908 30.2178 10.8955L30.4273 10.9479L30.6367 11.0002C30.7414 11.0002 30.7938 11.0526 30.8985 11.0526C30.9508 11.1573 31.1079 11.105 31.2126 11.1573Z" fill="#F58220"/>
<path d="M36.2397 6.96809C36.5015 6.39217 37.1821 5.97332 37.758 6.39217C38.9098 7.12515 39.7999 8.22463 40.7947 9.16704C42.1036 10.4236 43.2554 11.8372 44.0931 13.4602C44.9308 15.1356 45.4543 16.9681 45.5067 18.8529C45.7161 20.7377 45.402 22.6749 44.8261 24.455C43.6742 27.8581 41.2659 30.8424 38.1245 32.5702C33.7266 35.0309 28.0722 34.8738 23.779 32.256C19.6952 29.8477 17.0774 25.2403 16.868 20.5283C16.7633 18.3817 17.0774 16.1827 17.9674 14.1932C18.8051 12.2037 20.2188 10.4759 21.7894 9.00997C22.6795 8.11992 23.5172 7.12516 24.5643 6.44453C25.0355 6.07804 25.7161 6.18275 25.9779 6.70631C26.5015 7.54401 26.868 8.59113 26.8156 9.58589C26.7109 11.2613 25.1926 12.3084 24.0407 13.3032C22.6271 14.455 21.6847 16.0257 20.8994 17.5964C20.1664 19.167 19.7999 20.8424 19.8523 22.6225C19.8523 26.3398 21.6847 30.0571 24.7214 32.256C26.7109 33.6697 29.1193 34.455 31.5277 34.3503C34.8784 34.2979 38.0198 32.5702 40.0617 29.9524C41.8418 27.6487 42.7842 24.6644 42.5748 21.7325C42.4701 19.9524 41.9465 18.2246 41.1088 16.654C40.3235 15.2403 39.2763 13.9838 38.0722 12.989C37.1297 12.1513 36.0303 11.3136 35.7161 10.0571C35.4544 9.00997 35.8208 7.96285 36.2397 6.96809Z" fill="#F58220"/>
</svg>
