<svg width="190" height="41" viewBox="0 0 190 41" fill="none" xmlns="http://www.w3.org/2000/svg">
<g clip-path="url(#clip0_19_3919)">
<path d="M32.0116 0.517822H34.1136C34.2894 0.572091 34.4763 0.548183 34.6555 0.579682C37.0466 0.812698 39.417 1.53148 41.4413 2.84533C42.2572 3.37322 43.0007 4.00889 43.674 4.7087C44.1902 5.29351 44.6839 5.90338 45.0852 6.57472C45.3448 6.97245 45.5453 7.40356 45.7579 7.82709C46.3736 9.14929 46.7416 10.5808 46.8871 12.0301C46.9269 12.2643 46.9087 12.5034 46.9504 12.7375C46.9728 13.0221 46.9534 13.3079 46.9591 13.5937C46.9515 13.9235 46.983 14.2559 46.9277 14.5827C46.8947 15.4271 46.7655 16.265 46.6082 17.095C46.5214 17.5899 46.3687 18.0696 46.2706 18.5618C45.2755 22.5511 44.2788 26.5409 43.283 30.5302C43.12 31.2695 42.9207 32 42.743 32.7359C42.6206 33.208 42.5016 33.6938 42.2276 34.1052C42.0275 34.4277 41.7641 34.7063 41.475 34.9503C40.7834 35.5033 39.8925 35.7625 39.0157 35.7708C38.6432 35.7374 38.2672 35.6892 37.9122 35.5647C37.5416 35.4186 37.1683 35.2422 36.8985 34.9397C36.5074 34.5943 36.2956 34.0752 36.2634 33.5606C36.2202 33.2372 36.3104 32.915 36.3899 32.6042C36.8621 30.7131 37.3335 28.8221 37.8064 26.9314C38.0122 26.1329 38.1899 25.3276 38.3949 24.5291C39.082 21.775 39.7709 19.021 40.4575 16.2661C40.6243 15.5918 40.7274 14.9026 40.7759 14.21C40.7641 13.6764 40.8062 13.1402 40.7372 12.61C40.6667 11.9466 40.5174 11.2878 40.2578 10.6715C40.0305 10.073 39.6803 9.52689 39.2593 9.0472C39.1399 8.86618 38.9467 8.76029 38.8023 8.60394C38.7355 8.53408 38.6633 8.46962 38.5863 8.41115C38.1422 8.07263 37.6681 7.76333 37.149 7.55347C36.6976 7.3307 36.216 7.17434 35.7294 7.04873C35.056 6.85556 34.3614 6.7307 33.6611 6.69806C33.3485 6.64152 33.0302 6.67681 32.7153 6.66505C32.4671 6.65328 32.2249 6.71894 31.9775 6.71172C30.8176 6.82039 29.6771 7.08251 28.5859 7.49123C27.8652 7.74246 27.1827 8.08629 26.5116 8.44644C25.7128 8.92234 24.9371 9.44644 24.2523 10.0783C24.0158 10.3197 23.7737 10.5557 23.5369 10.7967C23.0753 11.336 22.6414 11.9136 22.3674 12.5739C22.0718 13.5379 21.8225 14.5159 21.5512 15.4874C21.2215 16.7439 20.8831 17.9978 20.5678 19.2582C20.1873 20.6836 19.8421 22.1189 19.4397 23.539C19.2578 24.1344 19.0744 24.7299 18.8902 25.3249C18.8061 25.6505 18.7379 25.986 18.5821 26.287C18.0925 27.361 17.0296 28.1295 15.8765 28.3306C15.0909 28.4839 14.2379 28.3781 13.5539 27.9466C13.355 27.7929 13.139 27.6505 12.9946 27.4403C12.6914 27.0858 12.5205 26.6342 12.4587 26.175C12.45 25.9587 12.3651 25.7348 12.4584 25.5249C13.3974 22.4422 14.1435 19.3052 14.9647 16.1899C15.4213 14.4328 15.8765 12.6753 16.3877 10.933C16.5006 10.5064 16.6863 10.1034 16.8886 9.71285C17.4404 8.5546 18.2013 7.50603 19.0547 6.55271C19.3893 6.21875 19.7224 5.88289 20.0577 5.5493C20.5898 5.09579 21.115 4.63166 21.6929 4.23621C21.9824 3.9975 22.3144 3.82141 22.6213 3.60775C23.848 2.82863 25.164 2.19599 26.5294 1.70112C26.8666 1.58879 27.1948 1.44761 27.54 1.35956C28.2657 1.14439 28.999 0.951217 29.7444 0.819908C30.3215 0.698846 30.9089 0.645336 31.4924 0.56564C31.6652 0.545906 31.8437 0.57361 32.0116 0.517822Z" fill="#00579C"/>
<path d="M7.58917 6.51247C7.7938 6.50526 7.99464 6.45706 8.19927 6.4601C8.73283 6.50868 9.27548 6.58761 9.76394 6.82139C10.0978 7.00165 10.4316 7.21493 10.6374 7.54434C10.933 7.91892 10.9531 8.43163 10.8599 8.88134C10.5965 9.90411 10.3574 10.9345 10.0804 11.9542C9.77379 13.1895 9.46457 14.4244 9.15649 15.6593C8.92723 16.599 8.66954 17.531 8.44407 18.4714C8.17729 19.5432 7.9071 20.6134 7.64222 21.6858C7.4122 22.5314 7.20909 23.3845 6.99536 24.235C6.75359 25.1492 6.56336 26.0843 6.5501 27.0331C6.50463 27.2797 6.51599 27.5302 6.55275 27.7769C6.56753 28.7693 6.79035 29.7568 7.20264 30.6592C7.40273 31.0236 7.59978 31.3936 7.8658 31.7154C8.07157 31.9465 8.25801 32.197 8.50243 32.3898C8.77299 32.5985 9.02537 32.8338 9.32664 33C9.64192 33.2012 9.97729 33.3659 10.3153 33.5253C11.0758 33.8251 11.8641 34.0588 12.6701 34.1989C13.4208 34.307 14.1821 34.3807 14.9407 34.3199C16.8411 34.2053 18.709 33.6589 20.3949 32.7765C21.3953 32.2695 22.312 31.6065 23.1483 30.8619C23.622 30.4035 24.0756 29.9192 24.4398 29.367C24.6614 29.0293 24.8998 28.6889 25.0025 28.2923C26.0014 24.8365 26.8472 21.3397 27.7726 17.865C27.9624 17.1792 28.1917 16.5052 28.3922 15.8225C28.5832 15.1921 28.8799 14.5838 29.3206 14.0897C29.5544 13.7754 29.8769 13.5428 30.2016 13.331C30.9 12.8825 31.7546 12.7124 32.575 12.791C32.9683 12.8384 33.362 12.9348 33.7118 13.1276C34.1468 13.3314 34.5273 13.6688 34.7501 14.098C34.9691 14.5026 34.9737 14.9902 34.8767 15.4301C34.2537 17.5086 33.7001 19.6073 33.1654 21.7101C32.4279 24.5393 31.7186 27.3769 30.9053 30.186C30.8352 30.4403 30.7295 30.6832 30.6173 30.9215C30.4237 31.389 30.1698 31.8293 29.9087 32.2623C29.4449 33.0205 28.9159 33.7404 28.3096 34.3905C28.0621 34.7014 27.7574 34.9594 27.4857 35.2482C26.9431 35.745 26.3819 36.2251 25.7858 36.6592C24.8494 37.353 23.838 37.9408 22.7966 38.4607C22.3139 38.677 21.8379 38.9085 21.3419 39.0953C20.9114 39.2824 20.4582 39.4091 20.0178 39.57C19.3365 39.7913 18.6415 39.9609 17.9435 40.1169C17.6782 40.1693 17.4092 40.203 17.145 40.26C16.7381 40.3328 16.3254 40.3632 15.9176 40.4262C15.7085 40.4638 15.4909 40.4167 15.2867 40.4831H13.1847C13.1072 40.4603 13.0271 40.4473 12.9463 40.4444C12.6454 40.4387 12.351 40.3674 12.0509 40.351C11.1429 40.2277 10.2418 40.0444 9.36984 39.7613C8.38761 39.4767 7.45123 39.0505 6.55313 38.5647C5.90513 38.1936 5.29503 37.7609 4.71562 37.29C4.53714 37.1275 4.34047 36.9837 4.17638 36.8042C3.91756 36.5313 3.6288 36.2858 3.395 35.989C1.82995 34.2091 0.846963 31.9465 0.521827 29.6027C0.456649 29.2315 0.446038 28.8528 0.380859 28.482V26.3333C0.419133 26.1902 0.415722 26.0418 0.43088 25.8965C0.540775 24.8426 0.697658 23.7883 0.985657 22.7667C1.4313 21.0107 1.85231 19.2479 2.31348 17.4961C2.66439 16.0855 3.01681 14.6756 3.36923 13.2654C3.7008 12.0271 3.99373 10.7781 4.31053 9.53599C4.3939 9.22859 4.44164 8.90829 4.58223 8.62024C4.74253 8.29121 4.91343 7.95649 5.18021 7.70032C5.3117 7.57319 5.43486 7.43732 5.57318 7.3174C6.14235 6.85099 6.86273 6.59065 7.58917 6.51247Z" fill="#DA251C"/>
<path d="M78.9492 15.324C78.9742 15.3498 78.9742 15.3498 78.9492 15.324V15.324Z" fill="white"/>
<path d="M59.3834 9.21127C60.8265 9.20824 62.2691 9.21127 63.7118 9.20976C63.016 12.5285 62.3165 15.8458 61.6223 19.1646C61.4866 19.8275 61.3058 20.4936 61.335 21.1759C61.3161 21.5478 61.3888 21.9289 61.5715 22.256C61.7367 22.5535 62.0338 22.7585 62.3498 22.8704C62.6412 22.9873 62.9577 23.0108 63.2658 23.0549C63.6648 23.0867 64.0653 23.0602 64.4594 22.9919C64.9543 22.9296 65.422 22.7198 65.8244 22.4298C66.3974 21.9668 66.7092 21.2716 66.9294 20.5866C67.0601 20.1615 67.1363 19.7236 67.2326 19.2909C67.9393 15.9384 68.6415 12.5843 69.3456 9.23253C69.3963 9.19647 69.4638 9.21469 69.5233 9.209C70.917 9.21393 72.3104 9.2052 73.7038 9.21279C73.5413 10.1001 73.3332 10.9782 73.1581 11.8621C72.7765 13.6678 72.3983 15.4739 72.0175 17.2792C71.8311 18.1456 71.6662 19.0173 71.465 19.8807C71.2505 20.7941 70.9625 21.6932 70.5635 22.5433C70.2096 23.2351 69.7446 23.8639 69.1872 24.4048C67.9469 25.5577 66.3485 26.3057 64.6792 26.5691C64.3859 26.6177 64.0915 26.6677 63.7932 26.6681C63.3745 26.7372 62.9486 26.6928 62.526 26.7068C62.2919 26.722 62.0637 26.6499 61.8295 26.6632C60.9606 26.5683 60.0909 26.3634 59.3152 25.9497C58.6801 25.6197 58.1271 25.151 57.6971 24.5782C57.1757 23.8473 56.923 22.9323 56.9631 22.037C56.9525 21.6086 56.9669 21.1816 57.0287 20.757C57.1537 19.7456 57.4 18.7558 57.6001 17.7581C58.1371 15.2192 58.6623 12.6784 59.2012 10.1403C59.2527 9.82873 59.3482 9.5255 59.3834 9.21127ZM90.9398 9.21014C92.3142 9.21014 93.6883 9.20976 95.0627 9.21051C94.8304 10.3297 94.5928 11.4469 94.3579 12.5653H90.2365C90.4764 11.4482 90.7109 10.3296 90.9398 9.21014ZM132.664 9.2348C132.711 9.19457 132.78 9.21659 132.841 9.209C135.611 9.21203 138.381 9.209 141.151 9.21014C141.331 9.21279 141.514 9.19571 141.693 9.23594C142.551 9.27237 143.418 9.41165 144.216 9.74486C144.893 10.0386 145.502 10.5691 145.751 11.2811C145.932 11.8135 145.984 12.3811 145.904 12.9376C145.869 13.3794 145.761 13.8105 145.638 14.2348C145.478 14.6731 145.275 15.1012 145 15.4799C144.812 15.7767 144.528 15.9923 144.292 16.2473C143.771 16.6779 143.176 17.0092 142.536 17.2245C143.004 17.3562 143.462 17.5555 143.838 17.8693C144.013 18.0363 144.205 18.1904 144.336 18.3964C144.668 18.8697 144.86 19.4477 144.83 20.0287C144.848 20.4264 144.791 20.8222 144.704 21.2089C144.496 22.0321 144.14 22.8192 143.639 23.505C143.373 23.8875 143.024 24.2002 142.696 24.527C142.077 25.059 141.362 25.4844 140.583 25.7307C139.975 25.9478 139.335 26.0621 138.695 26.1288C138.434 26.1376 138.178 26.1941 137.915 26.174C137.375 26.2552 136.824 26.1884 136.28 26.223C135.888 26.2863 135.488 26.2442 135.093 26.2564C133.091 26.2583 131.089 26.2526 129.087 26.259C130.278 20.5843 131.466 14.9076 132.664 9.2348ZM136.126 12.6955C136.107 12.8708 136.067 13.0439 136.027 13.2162C135.841 14.0928 135.663 14.9714 135.471 15.8469C136.614 15.8553 137.757 15.8484 138.9 15.8507C139.41 15.8659 139.931 15.7968 140.401 15.5889C140.735 15.4458 141.027 15.1961 141.205 14.8773C141.36 14.5839 141.494 14.2598 141.475 13.9209C141.475 13.7171 141.495 13.5004 141.384 13.319C141.283 13.0856 141.061 12.9395 140.836 12.8424C140.518 12.7237 140.18 12.6711 139.841 12.6879C138.602 12.6921 137.364 12.6781 136.126 12.6955ZM134.775 19.1319C134.749 19.3885 134.673 19.6367 134.625 19.889C134.519 20.4089 134.409 20.9281 134.298 21.4473C134.215 21.9027 134.092 22.3505 134.025 22.8097C135.24 22.8302 136.456 22.8116 137.672 22.8196C138.29 22.7809 138.926 22.7057 139.486 22.4196C140.005 22.1247 140.321 21.5634 140.431 20.9888C140.575 20.483 140.511 19.8526 140.076 19.5061C139.578 19.1687 138.954 19.0943 138.367 19.1236C137.17 19.1285 135.972 19.1137 134.775 19.1319ZM178.154 9.21089C179.505 9.21089 180.856 9.2071 182.208 9.21279C182.191 9.31716 182.172 9.42152 182.153 9.52512C181.954 10.4375 181.771 11.3528 181.573 12.2652C181.191 14.1452 180.776 16.0188 180.398 17.9C180.639 17.7634 180.798 17.53 181.016 17.3638C181.223 17.2044 181.38 16.9889 181.593 16.8355C181.781 16.6685 181.947 16.4784 182.15 16.3274C182.277 16.2105 182.389 16.0758 182.53 15.971C182.722 15.8238 182.868 15.6249 183.062 15.4784C183.239 15.3429 183.376 15.1634 183.553 15.0279C183.698 14.9156 183.819 14.776 183.952 14.6496C184.191 14.4674 184.385 14.2333 184.622 14.0488C184.76 13.941 184.863 13.7946 185.003 13.6887C185.446 13.664 185.892 13.6872 186.336 13.6792C187.509 13.6739 188.683 13.6906 189.856 13.6701V13.7016C188.253 15.1342 186.651 16.5676 185.049 18.0014C184.864 18.1388 184.726 18.3289 184.53 18.4499C184.716 18.9972 184.951 19.5262 185.149 20.0697C185.829 21.7953 186.495 23.5262 187.178 25.2511C187.297 25.604 187.462 25.938 187.573 26.2932C186.045 26.3008 184.516 26.2951 182.988 26.2958C182.385 24.6298 181.777 22.9645 181.169 21.3C181.017 21.4014 180.887 21.5304 180.747 21.6458C180.373 21.9676 179.998 22.2894 179.623 22.6105C179.516 22.7057 179.371 22.7888 179.337 22.9365C179.099 24.042 178.875 25.1505 178.635 26.2548C177.284 26.2564 175.933 26.2579 174.583 26.2548C174.601 26.0651 174.645 25.8807 174.682 25.6951C175.651 21.1019 176.611 16.5065 177.577 11.9126C177.772 11.0132 177.945 10.108 178.154 9.21089ZM102.202 13.2412C102.482 13.2101 102.764 13.2348 103.046 13.2272C103.333 13.2359 103.624 13.2037 103.91 13.2545C104.623 13.3373 105.35 13.4632 105.994 13.7957C106.38 13.952 106.72 14.2056 107.034 14.4765C107.178 14.5756 107.292 14.7111 107.397 14.8503C107.654 15.113 107.841 15.4355 107.999 15.7653C108.33 16.3805 108.436 17.0856 108.487 17.7729C108.476 18.0746 108.509 18.3797 108.456 18.6788C108.437 19.1035 108.351 19.5205 108.275 19.9376C108.157 20.4325 108.039 20.9293 107.858 21.4052C107.729 21.7125 107.624 22.0306 107.466 22.3243C107.166 22.9141 106.809 23.4765 106.371 23.9733C106.179 24.1516 106.045 24.3831 105.834 24.5425C105.706 24.6317 105.603 24.7486 105.489 24.8526C105.322 24.9869 105.142 25.1053 104.979 25.2446C103.749 26.111 102.257 26.5862 100.758 26.6381C100.254 26.7072 99.7461 26.6469 99.2425 26.6218C98.826 26.5706 98.41 26.5027 98.0056 26.3865C97.5725 26.245 97.1287 26.1015 96.7513 25.8404C95.9601 25.3695 95.3625 24.6017 95.0385 23.744C94.7444 22.9543 94.708 22.1008 94.7505 21.2678C94.7891 21.037 94.7736 20.8006 94.8312 20.5721C95.0862 18.872 95.7122 17.1839 96.8559 15.8792C97.0423 15.7088 97.1666 15.4807 97.3747 15.3327C97.5103 15.239 97.6134 15.108 97.7373 14.9991C98.3349 14.5338 98.97 14.0985 99.684 13.8329C100.481 13.4898 101.343 13.3274 102.202 13.2412ZM101.956 16.4367C101.636 16.4889 101.326 16.595 101.041 16.7505C100.754 16.9027 100.539 17.1475 100.314 17.3748C99.715 18.0674 99.4111 18.9535 99.2076 19.8329C99.1091 20.3293 99.0083 20.8317 99.0314 21.3399C99.0102 21.7133 99.0773 22.0867 99.2092 22.4359C99.3539 22.8249 99.6453 23.1797 100.044 23.3232C100.543 23.5376 101.114 23.5084 101.63 23.3642C101.989 23.2401 102.344 23.0681 102.607 22.7862C102.774 22.612 102.959 22.4522 103.094 22.2484C103.722 21.3744 103.999 20.3019 104.146 19.2492C104.225 18.7289 104.218 18.193 104.079 17.683C103.964 17.2818 103.75 16.8761 103.372 16.6682C102.948 16.4177 102.435 16.3794 101.956 16.4367H101.956ZM81.8944 13.4796C82.5499 13.3483 83.2264 13.3088 83.891 13.3885C84.5254 13.4473 85.1749 13.609 85.6834 14.012C86.2496 14.42 86.4936 15.1331 86.5474 15.8056C86.5391 16.2181 86.5944 16.6348 86.5236 17.045C86.4444 17.7813 86.2583 18.5 86.1166 19.2257C85.7611 20.8826 85.4242 22.5437 85.0699 24.201C84.9346 24.8689 84.7857 25.5338 84.655 26.2013C84.641 26.2727 84.5549 26.2507 84.5061 26.2575C83.1691 26.2548 81.8318 26.2571 80.4953 26.2564C80.8477 24.6108 81.1827 22.9615 81.5344 21.3156C81.6897 20.5433 81.869 19.7759 82.0031 18.9991C82.0838 18.4735 82.1691 17.9414 82.1255 17.4082C82.0861 17.1672 82.0171 16.8928 81.7966 16.7555C81.6428 16.6409 81.4622 16.5677 81.2721 16.5429C80.7886 16.4424 80.2812 16.5183 79.8257 16.6963C79.5559 16.8329 79.2929 17.0044 79.1011 17.2405C78.5547 17.8818 78.3379 18.719 78.1454 19.5201C77.7627 21.3744 77.3682 23.2256 76.9821 25.0788C76.8915 25.4697 76.8271 25.8666 76.7244 26.2545C75.3602 26.2575 73.9964 26.2579 72.6329 26.2541C72.6431 26.089 72.6773 25.927 72.717 25.7672C73.5215 21.9403 74.3215 18.1126 75.1298 14.2872C75.1715 14.0834 75.2018 13.8773 75.2598 13.6773C76.6081 13.6796 77.9571 13.6807 79.3058 13.678C79.1963 14.2124 79.0686 14.7445 78.9761 15.2815C79.2414 15.0663 79.446 14.7858 79.7203 14.5809C80.3369 14.0374 81.0955 13.6629 81.8944 13.4796ZM78.9484 15.324C78.9712 15.3475 78.9712 15.3475 78.9484 15.324V15.324ZM116.975 13.771C117.828 13.4135 118.769 13.2985 119.687 13.365C120.092 13.4037 120.5 13.461 120.886 13.5968C121.329 13.7456 121.753 13.9915 122.039 14.371C122.431 14.8826 122.541 15.5464 122.565 16.1756C122.584 16.4374 122.515 16.6932 122.523 16.9547C122.435 17.7934 122.222 18.6116 122.061 19.4374C121.629 21.4799 121.201 23.5228 120.772 25.5653C120.734 25.7975 120.659 26.0222 120.636 26.256C119.26 26.2552 117.886 26.2583 116.511 26.2548C116.509 26.0051 116.602 25.7691 116.638 25.5243C117.017 23.7182 117.397 21.9122 117.777 20.1069C117.882 19.5881 117.985 19.0689 118.053 18.5437C118.073 18.3281 118.124 18.1148 118.111 17.8966C118.101 17.683 118.13 17.4663 118.093 17.2553C118.025 17.0693 117.959 16.8572 117.782 16.7467C117.597 16.609 117.366 16.5596 117.143 16.5259C116.868 16.472 116.587 16.4997 116.317 16.5562C116.049 16.5858 115.805 16.7076 115.571 16.8317C115.388 16.9281 115.254 17.0879 115.109 17.2302C114.855 17.4758 114.715 17.8059 114.56 18.116C114.196 18.9649 114.077 19.8886 113.869 20.7824C113.545 22.3543 113.205 23.9235 112.884 25.4966C112.827 25.7478 112.768 25.9994 112.737 26.2556C111.36 26.2552 109.983 26.259 108.607 26.2537C109.478 22.0594 110.367 17.8682 111.242 13.675C112.59 13.6849 113.938 13.675 115.286 13.6811C115.189 14.2306 115.046 14.7714 114.957 15.3221C115.508 14.6693 116.196 14.1262 116.975 13.771ZM151.838 13.639C152.504 13.4614 153.194 13.4056 153.878 13.3505C154.219 13.3543 154.561 13.3471 154.903 13.3536C155.066 13.3748 155.229 13.3987 155.395 13.3923C155.896 13.4302 156.39 13.5327 156.873 13.6693C157.317 13.8135 157.739 14.0291 158.105 14.3213C158.394 14.587 158.659 14.897 158.792 15.2735C159.008 15.7873 159.012 16.3562 158.983 16.9038C158.888 17.7957 158.715 18.6784 158.52 19.5539C158.3 20.6154 158.076 21.6761 157.852 22.7368C157.741 23.3091 157.594 23.8753 157.525 24.4552C157.511 24.6738 157.518 24.8936 157.519 25.1129C157.536 25.3501 157.606 25.6298 157.845 25.7361C157.802 25.8992 157.788 26.07 157.741 26.2321C157.69 26.2712 157.62 26.2495 157.565 26.2575C156.214 26.2545 154.864 26.2575 153.514 26.2556C153.523 26.0218 153.492 25.7843 153.541 25.5528C153.57 25.3653 153.55 25.1748 153.548 24.9858C152.879 25.5478 152.12 25.9922 151.302 26.3C150.67 26.5114 150.006 26.6556 149.337 26.6237C148.651 26.6503 147.937 26.5573 147.33 26.2188C147.167 26.1463 147.023 26.0397 146.891 25.9213C146.683 25.7163 146.464 25.5137 146.333 25.2484C146.132 24.9144 146.035 24.5289 146.004 24.1433C145.943 23.8795 146.026 23.6154 146.029 23.3509C146.143 22.4776 146.456 21.6222 146.991 20.9182C147.133 20.7088 147.333 20.5501 147.504 20.3664C147.714 20.1327 147.983 19.9649 148.244 19.7949C148.927 19.3725 149.698 19.1186 150.482 18.9623C151.101 18.8319 151.724 18.7172 152.349 18.6184C153.142 18.4765 153.973 18.3782 154.682 17.963C154.854 17.8765 154.96 17.6981 155.017 17.5205C155.043 17.3444 155.097 17.1733 155.111 16.9957C155.09 16.7955 154.999 16.6093 154.854 16.4701C154.746 16.3547 154.585 16.3202 154.445 16.2651C154.033 16.1665 153.601 16.1346 153.185 16.2177C152.677 16.2788 152.181 16.4917 151.823 16.8621C151.638 17.0727 151.501 17.3167 151.379 17.5665C150.109 17.5649 148.839 17.5691 147.569 17.5642C147.863 16.7843 148.25 16.0272 148.814 15.4067C149.096 15.1285 149.362 14.8287 149.696 14.6097C150.334 14.1441 151.074 13.8283 151.837 13.639M152.888 20.8382C152.177 21.0082 151.413 21.0719 150.786 21.4807C150.376 21.7186 150.137 22.1869 150.107 22.6518C150.071 22.9402 150.102 23.2632 150.293 23.4966C150.47 23.7418 150.765 23.8761 151.058 23.9171C151.621 23.9683 152.197 23.8522 152.706 23.607C153.046 23.4025 153.397 23.182 153.623 22.8458C153.882 22.5311 154.042 22.1467 154.126 21.7501C154.223 21.2864 154.325 20.8241 154.415 20.3589C153.932 20.5877 153.409 20.7236 152.888 20.8382ZM169.015 13.5031C170.037 13.2731 171.123 13.2879 172.126 13.6029C172.47 13.7316 172.815 13.8993 173.066 14.1767C173.428 14.5084 173.629 14.9828 173.706 15.4613C173.854 16.3255 173.727 17.2055 173.563 18.0579C172.987 20.7896 172.417 23.5235 171.841 26.2552C170.463 26.2552 169.086 26.2586 167.709 26.2537C167.886 25.2867 168.111 24.3292 168.304 23.3653C168.514 22.3847 168.714 21.4021 168.925 20.4222C169.091 19.5786 169.29 18.7342 169.329 17.8735C169.368 17.7167 169.348 17.5566 169.317 17.4006C169.304 17.1972 169.243 16.9877 169.097 16.8393C168.949 16.6761 168.734 16.5942 168.523 16.552C168.052 16.4378 167.554 16.5103 167.105 16.6727C166.69 16.8394 166.339 17.1327 166.1 17.511C165.676 18.1486 165.481 18.9035 165.323 19.6439C164.865 21.8488 164.39 24.0499 163.938 26.2564C162.565 26.2556 161.19 26.2575 159.817 26.2552C160.616 22.4412 161.415 18.6264 162.219 14.8131C162.286 14.4336 162.395 14.0621 162.444 13.6792C163.792 13.6792 165.141 13.6792 166.489 13.6784C166.475 13.9479 166.385 14.2059 166.339 14.4705C166.289 14.7562 166.214 15.0363 166.161 15.3213C166.327 15.198 166.415 15.0014 166.58 14.8773C166.69 14.7965 166.792 14.7068 166.886 14.609C167.493 14.0761 168.224 13.6788 169.015 13.5031ZM89.9962 13.6799C91.3733 13.6788 92.7508 13.6784 94.1279 13.6792C93.3048 17.5604 92.4984 21.4442 91.6776 25.3258C91.6283 25.6381 91.5264 25.9406 91.4946 26.2556C90.1186 26.2552 88.7419 26.259 87.366 26.2541C88.0988 22.7304 88.8457 19.2101 89.5832 15.6871C89.7192 15.0181 89.875 14.3528 89.9962 13.6799ZM156.577 30.2677C156.714 30.2359 156.855 30.2351 156.993 30.2689C157.198 30.2746 157.402 30.3011 157.606 30.3285C157.562 30.7303 157.453 31.1224 157.378 31.5197C157.128 31.5095 156.877 31.4848 156.628 31.5121C156.489 31.5432 156.343 31.5983 156.268 31.7262C156.082 32.0328 156.075 32.4009 155.976 32.7376C156.355 32.7413 156.736 32.7353 157.116 32.7402C157.048 33.0931 156.973 33.4453 156.898 33.7975C156.521 33.8013 156.143 33.7918 155.766 33.804C155.538 34.7793 155.355 35.7649 155.141 36.7432C154.964 37.5926 154.785 38.4408 154.605 39.2893C154.135 39.2939 153.665 39.2855 153.195 39.2939C153.536 37.6954 153.864 36.0939 154.204 34.4947C154.235 34.2632 154.32 34.0412 154.332 33.807C154.004 33.7892 153.677 33.8009 153.35 33.7983C153.413 33.4431 153.517 33.0962 153.562 32.7376C153.896 32.7353 154.231 32.7467 154.566 32.7288C154.697 32.2438 154.748 31.7345 154.957 31.2719C155.096 31.0154 155.28 30.7785 155.516 30.6028C155.824 30.3839 156.202 30.281 156.577 30.2677ZM161.993 30.3618C162.495 30.3611 162.998 30.3581 163.501 30.3626C163.467 30.7474 163.347 31.1171 163.283 31.4966C162.737 34.0939 162.187 36.6912 161.647 39.2901C161.144 39.2893 160.642 39.2939 160.14 39.2874C160.148 39.1003 160.194 38.9178 160.239 38.7371C160.818 35.944 161.419 33.1558 161.993 30.3618ZM176.892 30.3611C177.353 30.3618 177.815 30.3573 178.277 30.3634C177.683 33.2324 177.073 36.0977 176.473 38.9656C176.433 39.0681 176.455 39.2047 176.378 39.2844C175.932 39.2984 175.486 39.2863 175.041 39.2905C175.11 39.0343 175.155 38.7732 175.206 38.5136C174.9 38.7603 174.604 39.0244 174.249 39.1986C173.855 39.4153 173.4 39.511 172.952 39.4954C172.363 39.5121 171.76 39.2772 171.368 38.8305C171.2 38.618 171.072 38.3766 170.963 38.1303C170.853 37.8332 170.824 37.5155 170.789 37.2036C170.766 36.9702 170.829 36.7417 170.833 36.5091C170.937 35.7372 171.179 34.9789 171.579 34.3098C171.725 34.0675 171.899 33.8434 172.098 33.6419C172.185 33.4977 172.333 33.4142 172.451 33.2985C173.156 32.6419 174.194 32.3785 175.128 32.607C175.432 32.7053 175.735 32.8495 175.952 33.0928C176.063 33.2127 176.152 33.3508 176.253 33.4799C176.446 32.489 176.667 31.5023 176.871 30.5125C176.877 30.462 176.883 30.4116 176.892 30.3611ZM174.113 33.8161C173.658 33.9227 173.255 34.1864 172.974 34.5611C172.756 34.8569 172.589 35.1873 172.479 35.5387C172.336 36.01 172.226 36.5026 172.258 36.9986C172.302 37.3504 172.407 37.7246 172.677 37.9724C172.89 38.1159 173.137 38.2343 173.401 38.2313C173.619 38.2263 173.845 38.254 174.059 38.1895C174.437 38.0871 174.791 37.8779 175.046 37.5781C175.581 36.9068 175.797 36.0366 175.856 35.1956C175.839 34.8715 175.813 34.5208 175.615 34.2506C175.398 33.9375 175.001 33.785 174.63 33.7975C174.457 33.8032 174.283 33.7835 174.113 33.8161ZM179.878 30.3618C180.354 30.3618 180.831 30.3573 181.307 30.3634C181.224 30.8416 181.126 31.317 181.011 31.7888C180.539 31.7911 180.066 31.7839 179.594 31.7926C179.681 31.3136 179.81 30.8438 179.878 30.3618ZM149.148 32.3831C149.684 32.3535 150.234 32.3459 150.755 32.5007C151.55 32.7227 152.224 33.3322 152.505 34.1129C152.783 34.93 152.714 35.8203 152.503 36.6442C152.367 37.1717 152.107 37.659 151.779 38.0912C151.587 38.3212 151.396 38.5573 151.152 38.7334C150.425 39.3459 149.456 39.6092 148.518 39.5774C148.066 39.5614 147.607 39.4946 147.191 39.3121C147.009 39.2501 146.84 39.1549 146.693 39.0313C146.022 38.5759 145.653 37.7561 145.648 36.9565C145.61 36.7947 145.612 36.6262 145.652 36.465C145.647 35.6027 145.904 34.7592 146.389 34.0465C146.864 33.3395 147.562 32.8119 148.371 32.5474C148.626 32.4802 148.882 32.4078 149.148 32.3831ZM149.271 33.4078C148.98 33.4544 148.681 33.5114 148.427 33.6685C148.194 33.8089 147.964 33.9698 147.808 34.196C147.447 34.6377 147.224 35.1774 147.085 35.7265C147.006 36.0624 146.939 36.4055 146.958 36.752C146.936 37.2464 147.069 37.7743 147.425 38.1334C147.574 38.251 147.734 38.3603 147.915 38.4225C148.796 38.7527 149.852 38.4685 150.47 37.7641C150.69 37.4821 150.909 37.191 151.033 36.8514C151.227 36.4062 151.291 35.9205 151.343 35.4415C151.365 34.9907 151.339 34.5155 151.11 34.1148C150.865 33.7148 150.412 33.4734 149.952 33.4298C149.727 33.3892 149.496 33.3664 149.271 33.4078ZM184.552 32.5478C185.143 32.511 185.753 32.5155 186.32 32.711C186.623 32.8226 186.935 32.9918 187.098 33.284C187.207 33.4632 187.285 33.6685 187.276 33.8818C187.31 34.4263 187.119 34.9482 187.029 35.4787C186.872 36.2112 186.723 36.9447 186.565 37.6772C186.529 37.8563 186.5 38.0415 186.548 38.2218C186.727 38.2939 186.923 38.2548 187.112 38.2723C187.033 38.6187 186.964 38.9667 186.887 39.3132C186.455 39.421 185.994 39.4624 185.562 39.3315C185.395 39.2692 185.23 39.1721 185.149 39.007C185.034 38.8491 185.069 38.6487 185.062 38.4677C184.417 39.1261 183.5 39.5538 182.57 39.495C182.115 39.473 181.622 39.3538 181.31 38.9986C181.143 38.8316 181.041 38.6051 180.989 38.3774C180.954 37.9668 180.964 37.5398 181.13 37.1561C181.266 36.7248 181.535 36.3478 181.899 36.0791C182.245 35.8271 182.651 35.6757 183.061 35.5637C183.463 35.4696 183.869 35.3854 184.281 35.3474C184.732 35.2673 185.218 35.2286 185.602 34.9508C185.832 34.807 185.893 34.5 185.852 34.2487C185.827 34.0294 185.649 33.8506 185.442 33.7949C185.111 33.6734 184.755 33.7235 184.412 33.719C184.091 33.7656 183.764 33.8723 183.525 34.1019C183.356 34.2919 183.247 34.5286 183.214 34.7812C182.766 34.7812 182.318 34.7842 181.869 34.7797C181.892 34.5793 181.95 34.3846 182.027 34.1986C182.135 33.9641 182.244 33.7224 182.435 33.5425C182.964 32.9334 183.759 32.6089 184.552 32.5478ZM184.682 36.2844C184.164 36.407 183.619 36.4096 183.118 36.6039C182.864 36.7102 182.627 36.8958 182.529 37.1618C182.415 37.4332 182.331 37.7789 182.511 38.0419C182.584 38.1797 182.738 38.2354 182.874 38.2931C183.299 38.4093 183.753 38.3227 184.162 38.1816C184.655 37.9804 185.087 37.5948 185.284 37.0931C185.386 36.7531 185.456 36.4036 185.52 36.0544C185.24 36.1345 184.97 36.2419 184.682 36.2844H184.682ZM166.854 32.8985C167.3 32.6499 167.822 32.5539 168.329 32.5744C168.738 32.6138 169.172 32.6541 169.521 32.8924C169.671 33.0298 169.841 33.1653 169.907 33.3656C169.983 33.5341 170.007 33.7178 170.03 33.8996C170.075 34.1398 169.995 34.377 169.997 34.618C169.931 35.1011 169.809 35.5744 169.716 36.0525C169.493 37.1132 169.265 38.174 169.05 39.2362C169.037 39.3064 168.948 39.2829 168.902 39.2905C168.477 39.2829 168.051 39.3026 167.627 39.2874C167.706 38.7834 167.836 38.289 167.928 37.7872C168.026 37.3478 168.108 36.906 168.208 36.4681C168.317 35.8855 168.469 35.3114 168.556 34.7254C168.606 34.3725 168.429 33.9626 168.066 33.859C167.648 33.7394 167.19 33.7842 166.788 33.9398C166.403 34.1007 166.083 34.386 165.878 34.7504C165.657 35.1368 165.583 35.5808 165.5 36.0119C165.261 37.1026 165.047 38.1994 164.803 39.2889C164.33 39.2946 163.857 39.2848 163.386 39.2946C163.774 37.4817 164.144 35.6647 164.531 33.8514C164.605 33.4791 164.682 33.1068 164.771 32.7383C165.22 32.7406 165.671 32.7357 166.12 32.7398C166.104 33.0184 166.011 33.284 165.963 33.5573C166.228 33.3004 166.519 33.0613 166.854 32.8985ZM179.387 32.7391C179.863 32.7391 180.339 32.7368 180.816 32.7391C180.371 34.925 179.892 37.1026 179.451 39.2882C178.974 39.292 178.499 39.2916 178.022 39.2882C178.463 37.1022 178.944 34.9246 179.387 32.7391Z" fill="#DA251C"/>
</g>
<defs>
<clipPath id="clip0_19_3919">
<rect width="189.474" height="40" fill="white" transform="translate(0.380859 0.5)"/>
</clipPath>
</defs>
</svg>
